<?xml version="1.0" encoding="UTF-8"?>
<svg id="Layer_1" data-name="Layer 1" xmlns="http://www.w3.org/2000/svg" viewBox="0 0 238.63 107.24">
  <g>
    <path d="M15.11,94.92S2,80.63.04,65.32s70.02-15.57,70.02-15.57c0,0,3.98.66-7.41,6.01-11.38,5.35-38.5,18.55-44.34,36.81,0,0-1.43,4.44-3.2,2.36Z" style="fill: #191347;"/>
    <path d="M78.98,48.04s5.02,5.79-8.88,12.36c-13.9,6.56-41.31,16.6-35.13,38.22,6.18,21.62,57.59-1.43,62.19-25.37,3.32-17.25-.37-21.73-18.17-25.21Z" style="fill: #68c9cd;"/>
    <polygon points=".72 50.48 .72 27.96 49.17 0 97.77 28.07 97.77 50.48 49.17 22.56 .72 50.48" style="fill: #191347;"/>
  </g>
  <text transform="translate(112.99 59.22)" style="fill: #231f20; font-family: Outfit-SemiBold, Outfit; font-size: 18px; font-variation-settings: &apos;wght&apos; 600; font-weight: 600;"><tspan x="0" y="0">G</tspan><tspan x="14" y="0" style="letter-spacing: -.02em;">E</tspan><tspan x="24.44" y="0" style="letter-spacing: -.02em;">T</tspan><tspan x="35.48" y="0" xml:space="preserve"> ONE </tspan><tspan x="80.82" y="0" style="letter-spacing: 0em;">P</tspan><tspan x="91.78" y="0" style="letter-spacing: -.05em;">L</tspan><tspan x="100.94" y="0" style="letter-spacing: -.04em;">O</tspan><tspan x="114.61" y="0" style="letter-spacing: -.02em;">T</tspan></text>
</svg>