<?xml version="1.0" encoding="UTF-8"?>
<svg id="Layer_1" data-name="Layer 1" xmlns="http://www.w3.org/2000/svg" viewBox="0 0 111.68 134.2">
  <g>
    <path d="M21.06,94.92s-13.11-14.28-15.07-29.6,70.02-15.57,70.02-15.57c0,0,3.98.66-7.41,6.01-11.38,5.35-38.5,18.55-44.34,36.81,0,0-1.43,4.44-3.2,2.36Z" style="fill: #191347;"/>
    <path d="M84.92,48.04s5.02,5.79-8.88,12.36c-13.9,6.56-41.31,16.6-35.13,38.22,6.18,21.62,57.59-1.43,62.19-25.37,3.32-17.25-.37-21.73-18.17-25.21Z" style="fill: #68c9cd;"/>
    <polygon points="6.66 50.48 6.66 27.96 55.11 0 103.71 28.07 103.71 50.48 55.11 22.56 6.66 50.48" style="fill: #191347;"/>
  </g>
  <text transform="translate(0 130.79)" style="fill: #231f20; font-family: Outfit-SemiBold, Outfit; font-size: 16px; font-variation-settings: &apos;wght&apos; 600; font-weight: 600;"><tspan x="0" y="0">G</tspan><tspan x="12.45" y="0" style="letter-spacing: -.02em;">E</tspan><tspan x="21.73" y="0" style="letter-spacing: -.02em;">T</tspan><tspan x="31.54" y="0" xml:space="preserve"> ONE </tspan><tspan x="71.84" y="0" style="letter-spacing: 0em;">P</tspan><tspan x="81.58" y="0" style="letter-spacing: -.05em;">L</tspan><tspan x="89.73" y="0" style="letter-spacing: -.04em;">O</tspan><tspan x="101.87" y="0" style="letter-spacing: -.02em;">T</tspan></text>
</svg>